<?xml version="1.0" encoding="UTF-8"?>
<svg width="30px" height="30px" viewBox="0 0 30 30" version="1.1" xmlns="http://www.w3.org/2000/svg" xmlns:xlink="http://www.w3.org/1999/xlink">
    <!-- Generator: Sketch 53.2 (72643) - https://sketchapp.com -->
    <title>Controls/Social Buttons/Amazone</title>
    <desc>Created with Sketch.</desc>
    <g id="Controls/Social-Buttons/Amazone" stroke="none" stroke-width="1" fill="none" fill-rule="evenodd">
        <rect fill="#FFFFFF" x="0" y="0" width="30" height="30"></rect>
        <rect id="UmrisslinieEtwasDicker" stroke="#000000" stroke-width="0.5" x="0.25" y="0.25" width="29.5" height="29.5" rx="14.75"></rect>
        <path d="M18.9505282,18.8633333 C18.8103396,18.9893333 18.6070996,18.9973333 18.4508127,18.9126667 C17.7451742,18.3313333 17.6204131,18.062 17.2340559,17.5086667 C16.0709597,18.6866667 15.2472676,19.04 13.7400721,19.04 C11.9558531,19.04 10.5667111,17.946 10.5667111,15.7566667 C10.5667111,14.0466667 11.4997369,12.884 12.827169,12.314 C13.9775208,11.8113333 15.5839887,11.72 16.8128192,11.584 L16.8128192,11.3106667 C16.8128192,10.8086667 16.8530647,10.216 16.5559185,9.78133333 C16.2976763,9.39533333 15.8019853,9.23466667 15.3653212,9.23466667 C14.5570566,9.23466667 13.8380029,9.64666667 13.6615933,10.4993333 C13.6253723,10.6893333 13.4865252,10.8773333 13.2933466,10.8873333 L11.2401532,10.6653333 C11.0664266,10.628 10.8725772,10.488 10.9235549,10.2253333 C11.3957693,7.748 13.6468366,7 15.6631382,7 C16.6940948,7 18.0423205,7.27333333 18.8546097,8.04933333 C19.8862371,9.00666667 19.7883062,10.284 19.7883062,11.6746667 L19.7883062,14.9566667 C19.7883062,15.944 20.2014938,16.3766667 20.587851,16.9093333 C20.7246859,17.1006667 20.7535285,17.3293333 20.5811434,17.4686667 C20.1471623,17.8293333 19.3778017,18.4933333 18.9558943,18.868 L18.9505282,18.8633333 Z M16.81349,13.7266667 L16.8141607,13.7266667 L16.8141607,13.27 C15.2814763,13.27 13.6615933,13.5966667 13.6615933,15.3913333 C13.6615933,16.3033333 14.1364907,16.9193333 14.9507921,16.9193333 C15.5444139,16.9193333 16.0803503,16.5546667 16.4170714,15.9606667 C16.832942,15.2306667 16.81349,14.548 16.81349,13.7266667 Z" id="Combined-Shape" fill="#000000" fill-rule="nonzero"></path>
        <path d="M21.3377596,20.1886667 C19.4945138,21.17 17.4909566,21.6426667 15.6678335,21.6426667 C12.9666869,21.6426667 10.3507267,20.714 8.23515274,19.172 C8.04935248,19.0373333 7.91251764,19.2746667 8.06679222,19.4493333 C10.0287624,21.6666667 12.618563,23 15.4961192,23 C17.5493126,23 19.9325194,22.1906667 21.5772206,20.6706667 C21.8495487,20.4193333 21.6161246,20.0406667 21.3377596,20.1886667 L21.3377596,20.1886667 Z" id="Path" fill="#000000" fill-rule="nonzero"></path>
        <path d="M21.7871682,21.666 C21.7261291,21.8173333 21.8569271,21.8793333 21.9951035,21.764 C22.8932498,21.0173333 23.1253324,19.4533333 22.9415444,19.228 C22.759098,19.004 21.1895219,18.8106667 20.231678,19.4793333 C20.084111,19.582 20.1095998,19.724 20.273265,19.704 C20.813226,19.64 22.0138847,19.496 22.2271861,19.7693333 C22.4411582,20.0426667 21.9890666,21.1653333 21.7871682,21.666 L21.7871682,21.666 Z" id="Path" fill="#000000" fill-rule="nonzero"></path>
    </g>
</svg>