<?xml version="1.0" encoding="UTF-8"?>
<svg width="30px" height="30px" viewBox="0 0 30 30" version="1.1" xmlns="http://www.w3.org/2000/svg" xmlns:xlink="http://www.w3.org/1999/xlink">
    <!-- Generator: Sketch 53.2 (72643) - https://sketchapp.com -->
    <title>Controls/Social Buttons/Apple</title>
    <desc>Created with Sketch.</desc>
    <g id="Controls/Social-Buttons/Apple" stroke="none" stroke-width="1" fill="none" fill-rule="evenodd">
        <rect fill="#FFFFFF" x="0" y="0" width="30" height="30"></rect>
        <rect id="UmrisslinieEtwasDicker" stroke="#000000" stroke-width="0.5" x="0.25" y="0.25" width="29.5" height="29.5" rx="14.75"></rect>
        <path d="M18.8567966,14.5007032 C18.8789329,16.9217914 20.9758512,17.7274763 21,17.73756 C20.9818884,17.7950369 20.6639296,18.8860896 19.8951937,20.0134434 C19.2290901,20.9875255 18.5388378,21.9585826 17.4511369,21.9797583 C16.3815476,21.9989172 16.0374276,21.3434789 14.8159022,21.3434789 C13.5943769,21.3434789 13.2120214,21.9585826 12.1997854,21.9989172 C11.1493138,22.0392519 10.350392,20.9451741 9.67925741,19.9741171 C8.30881465,17.9876349 7.26035551,14.3605403 8.66802762,11.9132345 C9.36632958,10.6971444 10.6150223,9.92776071 11.9713783,9.90759337 C13.0017258,9.88742604 13.9757262,10.602358 14.6056067,10.602358 C15.2354871,10.602358 16.4187769,9.74322962 17.6614324,9.86927544 C18.1826434,9.89145951 19.643644,10.0800241 20.5824275,11.4564445 C20.5069626,11.5038377 18.838685,12.4759031 18.8567966,14.5007032 Z M16.8473791,8.5551789 C16.2898606,9.23079922 15.3752616,9.75721622 14.4797117,9.68763801 C14.3570123,8.76898571 14.8097981,7.81106501 15.3259643,7.21307697 C15.9025336,6.53646206 16.8744648,6.03230266 17.677472,6 C17.7811205,6.93774417 17.4048059,7.87856399 16.8473791,8.5551789 Z" id="Combined-Shape" fill="#000000" fill-rule="nonzero"></path>
    </g>
</svg>