<?xml version="1.0" encoding="UTF-8"?>
<svg width="1000px" height="192px" viewBox="0 0 1000 192" version="1.1" xmlns="http://www.w3.org/2000/svg" xmlns:xlink="http://www.w3.org/1999/xlink">
    <g id="Page-1" stroke="none" stroke-width="1" fill="none" fill-rule="evenodd">
        <g id="Deezer_Logo" fill="#000000">
            <path d="M234.1,126.943818 C234.1,167.043818 258.8,191.043818 295.5,191.043818 C313.8,191.043818 329.2,185.943818 337.8,172.543818 L337.8,191.043818 L371.3,191.043818 L371.3,0.043818 L336.5,0.043818 L336.5,81.243818 C328.6,67.843818 314,61.843818 295.7,61.843818 C259.9,61.743818 234.1,86.243818 234.1,126.943818 L234.1,126.943818 Z M337.6,126.943818 C337.6,149.843818 322,164.143818 303.3,164.143818 C283.9,164.143818 269,149.843818 269,126.943818 C269,103.643818 284,89.043818 303.3,89.043818 C322,89.043818 337.6,103.843818 337.6,126.943818 Z" id="path8175" fill-rule="nonzero"></path>
            <path d="M479.6,141.743818 C475.6,156.543818 465.5,163.943818 449.6,163.943818 C431.1,163.943818 415.9,152.743818 415.5,132.943818 L503.2,132.943818 C504.3,128.043818 504.8,122.843818 504.8,117.143818 C504.8,81.643818 480.6,61.643818 444.9,61.643818 C406.8,61.643818 380.6,88.743818 380.6,125.543818 C380.6,166.543818 409.5,191.143818 449.5,191.143818 C479.7,191.143818 500.2,178.543818 509.2,153.443818 L479.6,141.743818 Z M415.5,109.743818 C418.8,95.443818 430.7,87.043818 445,87.043818 C460.6,87.043818 471.2,95.443818 471.2,108.643818 L471,109.743818 L415.5,109.743818 Z" id="path8177" fill-rule="nonzero"></path>
            <path d="M608.7,141.743818 C604.7,156.543818 594.6,163.943818 578.7,163.943818 C560.2,163.943818 545,152.743818 544.6,132.943818 L632.3,132.943818 C633.4,128.043818 633.9,122.843818 633.9,117.143818 C633.9,81.643818 609.7,61.643818 574,61.643818 C535.9,61.643818 509.7,88.743818 509.7,125.543818 C509.7,166.543818 538.6,191.143818 578.6,191.143818 C608.8,191.143818 629.3,178.543818 638.3,153.443818 L608.7,141.743818 Z M544.6,109.743818 C547.9,95.443818 559.8,87.043818 574.1,87.043818 C589.7,87.043818 600.3,95.443818 600.3,108.643818 L600.1,109.743818 L544.6,109.743818 Z" id="path8179" fill-rule="nonzero"></path>
            <polygon id="path8181" fill-rule="nonzero" points="756.7 191.243818 756.7 159.743818 683.6 159.743818 754.7 90.543818 754.7 61.743818 642.2 61.743818 642.2 91.743818 710.9 91.743818 640 161.243818 640 191.243818"></polygon>
            <path d="M858.4,141.743818 C854.4,156.543818 844.3,163.943818 828.4,163.943818 C809.9,163.943818 794.7,152.743818 794.3,132.943818 L882,132.943818 C883.1,128.043818 883.6,122.843818 883.6,117.143818 C883.6,81.643818 859.4,61.643818 823.7,61.643818 C785.6,61.643818 759.4,88.743818 759.4,125.543818 C759.4,166.543818 788.3,191.143818 828.3,191.143818 C858.5,191.143818 879,178.543818 888,153.443818 L858.4,141.743818 Z M794.3,109.743818 C797.6,95.443818 809.5,87.043818 823.8,87.043818 C839.4,87.043818 850,95.443818 850,108.643818 L849.8,109.743818 L794.3,109.743818 Z" id="path8183" fill-rule="nonzero"></path>
            <rect id="rect8185" x="155.5" y="61.743818" width="42.9" height="25.1"></rect>
            <rect id="rect8192" x="155.5" y="96.543818" width="42.9" height="25.1"></rect>
            <rect id="rect8199" x="155.5" y="131.343818" width="42.9" height="25.1"></rect>
            <rect id="rect8206" x="0" y="166.143818" width="42.9" height="25.1"></rect>
            <rect id="rect8213" x="51.8" y="166.143818" width="42.9" height="25.1"></rect>
            <rect id="rect8220" x="103.7" y="166.143818" width="42.9" height="25.1"></rect>
            <rect id="rect8227" x="155.5" y="166.143818" width="42.9" height="25.1"></rect>
            <rect id="rect8234" x="103.7" y="131.343818" width="42.9" height="25.1"></rect>
            <rect id="rect8241" x="51.8" y="131.343818" width="42.9" height="25.1"></rect>
            <rect id="rect8248" x="51.8" y="96.543818" width="42.9" height="25.1"></rect>
            <path d="M966.1,106.443818 C966.1,107.743818 966.1,110.143818 966.1,110.143818 L1000,110.143818 C1000,110.143818 1000,103.743818 1000,100.243818 C1000,78.043818 986.1,61.943818 962.8,61.943818 C947.8,61.943818 937.2,69.243818 931.7,81.343818 L931.7,61.943818 L896.7,61.943818 L896.7,191.243818 L931.7,191.243818 L931.7,107.943818 C931.7,94.743818 938.8,87.443818 949.7,87.443818 C959.7,87.543818 966.1,96.943818 966.1,106.443818 Z" id="path8250" fill-rule="nonzero"></path>
        </g>
    </g>
</svg>
