<svg version="1.1" id="Ebene_1" xmlns="http://www.w3.org/2000/svg" xmlns:xlink="http://www.w3.org/1999/xlink" x="0px" y="0px"
	 viewBox="0 0 283.9 68.2" style="enable-background:new 0 0 283.9 68.2;" xml:space="preserve">
<g>
	<path d="M100.2,4.4h14v62.8h-14V4.4z"/>
	<path d="M121.8,8.6c0-4.3,3.4-7.9,8.2-7.9c4.9,0,8.3,3.6,8.3,7.9c0,4.2-3.4,8-8.3,8C125.2,16.6,121.8,12.8,121.8,8.6z M122.9,21.8
		h14.2v45.4h-14.2V21.8z"/>
	<path d="M146.1,64.8V4.4h14.1v20.5c1.8-1.8,5.5-3.9,10.7-3.9c13.1,0,18.3,10.2,18.3,22.8c0,12.8-7.9,24.1-24.3,24.1
		C158.3,68,151,66.7,146.1,64.8z M174.3,44.4c0-7.6-2.2-12.5-8.6-12.5c-2.3,0-4.3,0.9-5.5,1.9v22.7c1.4,0.4,3.3,0.6,4.9,0.6
		C171.4,57.3,174.3,52.5,174.3,44.4z"/>
	<path d="M194.6,21.8h13.8v4.8c3.1-3.7,6.9-5.5,11.3-5.5c1.7,0,2.9,0.2,3.8,0.5v12.3c-1.2-0.3-2.7-0.6-5-0.6c-4.2,0-7.5,1.4-9.8,2.9
		v31.1h-14.1V21.8z"/>
	<path d="M227.9,8.6c0-4.3,3.4-7.9,8.2-7.9c4.9,0,8.3,3.6,8.3,7.9c0,4.2-3.4,8-8.3,8C231.3,16.6,227.9,12.8,227.9,8.6z M229,21.8
		h14.2v45.4H229V21.8z"/>
	<path d="M250.3,65.4V55.1c3.4,1.5,8.8,2.7,13.2,2.7c4.8,0,6.6-1.4,6.6-3.9c0-3-4.2-3.3-9.8-5.2c-5.8-1.8-10.4-5.6-10.4-13.6
		c0-9.9,7.5-14.1,18.4-14.1c4.5,0,9.4,0.9,12,1.8v10.3c-3-0.9-6.7-1.9-11.3-1.9c-4.3,0-5.9,1.1-5.9,3.1c0,2.3,1.9,2.9,7.9,4.5
		c6.4,1.8,12.6,5.3,12.6,14.4c0,9.6-7.3,14.7-18.1,14.7C258.6,68,253.8,66.9,250.3,65.4z"/>
	<path d="M0.2,44.5c0-12.6,7.4-23.5,22.1-23.5c15.2,0,20.1,10.2,20.1,21.5c0,1.5-0.1,3-0.3,4.6H14.7c0.2,6.4,2.6,10.3,10.7,10.3
		c5.6,0,10.4-1.3,13.8-2.8v10.6C35.1,66.9,30,68,24.4,68C7.1,68,0.2,58.3,0.2,44.5z M28.6,39.2v-0.6c0-3.8-1.9-7.5-6.3-7.5
		c-4.4,0-6.8,3.2-7.3,8H28.6z"/>
	<polygon points="41.9,67.2 56.7,44.5 41.9,21.8 56.7,21.8 64.1,33.1 71.5,21.8 86.3,21.8 71.5,44.5 86.3,67.2 71.5,67.2 64.1,55.9 
		56.7,67.2 	"/>
</g>
</svg>
