<?xml version="1.0" encoding="utf-8"?>
<!-- Generator: Adobe Illustrator 22.0.1, SVG Export Plug-In . SVG Version: 6.00 Build 0)  -->
<svg version="1.1" id="Layer_1" xmlns="http://www.w3.org/2000/svg" xmlns:xlink="http://www.w3.org/1999/xlink" x="0px" y="0px"
	 viewBox="0 0 428.9 109.2" style="enable-background:new 0 0 428.9 109.2;" xml:space="preserve">
<style type="text/css">
	.st0{opacity:0.9;fill:url(#SVGID_1_);enable-background:new    ;}
	.st1{opacity:0.9;fill:url(#SVGID_2_);enable-background:new    ;}
	.st2{fill:#666666;}
	.st3{fill:url(#SVGID_3_);}
</style>
<g>
	
		<radialGradient id="SVGID_1_" cx="1189.3015" cy="2753.8162" r="58.5795" gradientTransform="matrix(-6.600000e-03 -0.9695 -1.1845 8.160000e-03 3330.6121 1185.2745)" gradientUnits="userSpaceOnUse">
		<stop  offset="0.2593" style="stop-color:#FFFFFF;stop-opacity:0"/>
		<stop  offset="0.5353" style="stop-color:#FDFDFD;stop-opacity:7.452860e-02"/>
		<stop  offset="0.6347" style="stop-color:#F6F6F6;stop-opacity:0.1014"/>
		<stop  offset="0.7056" style="stop-color:#EBEBEB;stop-opacity:0.1205"/>
		<stop  offset="0.763" style="stop-color:#DADADA;stop-opacity:0.136"/>
		<stop  offset="0.812" style="stop-color:#C4C4C4;stop-opacity:0.1493"/>
		<stop  offset="0.8555" style="stop-color:#A8A8A8;stop-opacity:0.161"/>
		<stop  offset="0.8949" style="stop-color:#888888;stop-opacity:0.1716"/>
		<stop  offset="0.931" style="stop-color:#626262;stop-opacity:0.1814"/>
		<stop  offset="0.9647" style="stop-color:#373737;stop-opacity:0.1905"/>
		<stop  offset="0.9945" style="stop-color:#090909;stop-opacity:0.1985"/>
		<stop  offset="1" style="stop-color:#000000;stop-opacity:0.2"/>
	</radialGradient>
	<path class="st0" d="M15.9,98.4c0,0-24.9-25.1-11.2-67.9c13.7-42.8,148.4-45,108.9,26.1C74.1,127.8,28.4,109.9,15.9,98.4z"/>
	
		<radialGradient id="SVGID_2_" cx="1160.5887" cy="2693.9531" r="46.332" gradientTransform="matrix(0.2866 -0.958 -1.1496 -0.3439 2824.2852 2090.8418)" gradientUnits="userSpaceOnUse">
		<stop  offset="0.2751" style="stop-color:#FFFFFF;stop-opacity:0"/>
		<stop  offset="0.5452" style="stop-color:#FDFDFD;stop-opacity:0.1863"/>
		<stop  offset="0.6426" style="stop-color:#F6F6F6;stop-opacity:0.2534"/>
		<stop  offset="0.7119" style="stop-color:#EBEBEB;stop-opacity:0.3013"/>
		<stop  offset="0.768" style="stop-color:#DADADA;stop-opacity:0.34"/>
		<stop  offset="0.8161" style="stop-color:#C4C4C4;stop-opacity:0.3731"/>
		<stop  offset="0.8586" style="stop-color:#A8A8A8;stop-opacity:0.4025"/>
		<stop  offset="0.8971" style="stop-color:#888888;stop-opacity:0.4291"/>
		<stop  offset="0.9325" style="stop-color:#626262;stop-opacity:0.4535"/>
		<stop  offset="0.9654" style="stop-color:#373737;stop-opacity:0.4762"/>
		<stop  offset="0.9947" style="stop-color:#090909;stop-opacity:0.4963"/>
		<stop  offset="1" style="stop-color:#000000;stop-opacity:0.5"/>
	</radialGradient>
	<path class="st1" d="M15.1,76c0,0-13-25.5,7.7-55.6c20.7-30.2,124.4-0.2,77.2,46C52.7,112.6,21.9,87.9,15.1,76z"/>
	<path d="M140,4.5c-4,0-7.3,3.3-7.3,7.3s3.3,7.3,7.3,7.3c4,0,7.3-3.3,7.3-7.3S144,4.5,140,4.5z"/>
	<path d="M132.8,31.1v48.4H147V25.3h-8.3C137,25.5,132.8,25.2,132.8,31.1z"/>
	<path d="M257.5,23.9c-14.3,0-23.9,11.2-23.9,28c0,16.9,9.5,27.8,23.9,27.8c8.2,0,13.5-2.8,17.5-7.4c4.6-5.2,6.6-11.5,6.6-20.7
		c0-8.7-1.9-14.6-6.1-19.6C271,26.5,265.1,23.9,257.5,23.9z M257.9,69.5c-2.7,0-5.8-1.5-7.1-4.4c-1.1-2.7-1.8-7.3-1.8-13.5
		c0-5.3,0.5-9.1,1.5-12c1.1-3.3,3.9-5.4,7.2-5.4c2.5,0,4.7,1,6,2.8c1.9,2.4,2.8,7.1,2.8,14.4C266.5,64.1,264,69.5,257.9,69.5z"/>
	<path d="M310.5,23.9c-14.3,0-23.9,11.2-23.9,28c0,16.9,9.5,27.8,23.9,27.8c8.2,0,13.5-2.8,17.5-7.4c4.6-5.2,6.7-11.5,6.7-20.7
		c0-8.7-1.9-14.6-6.1-19.6C324,26.5,318,23.9,310.5,23.9z M310.9,69.5c-2.7,0-5.8-1.5-7.1-4.4c-1.1-2.7-1.8-7.3-1.8-13.5
		c0-5.3,0.5-9.1,1.5-12c1.1-3.3,3.8-5.4,7.2-5.4c2.5,0,4.7,1,6,2.8c1.9,2.4,2.8,7.1,2.8,14.4C319.5,64.1,316.9,69.5,310.9,69.5z"/>
	<path d="M369.1,25.4l-10,37.8l-9.7-37.8h-15l13.5,43.9l0,0c0,0,2.9,10,11.2,10c5.8,0,9-5.8,10.1-8.7l14.6-45.2H369.1z"/>
	<path d="M183.9,25.5c-1.5-0.1-2.9-0.2-4.4-0.2c-17.5,0-27.1,10.2-27.1,28.7c0,15.2,8.7,25.4,21.6,25.4c1.3,0,2.6-0.1,3.7-0.2v-7.7
		c-7.6-0.2-11-5.9-11-18.4c0-13.5,3.7-19.1,11.7-19.1c0.4,0,0.7,0.1,1,0.1c3.3,0.6,4.3,3.2,4.3,14.4v0V70l0,0v5.8l0,0v3.8
		c0,5.9-2.7,9.3-8.1,10.3c-1,0.1-2.1,0.1-3.4,0.1c-5.5-0.2-9.6-2.3-11.3-2.7c0,0,0,0,0,0c-0.1,0-0.1,0-0.2,0c-1.3-0.2-1.9,0-2.1,0.1
		c-2,0.6-3.5,2.4-3.5,4.6c0,1.3,0.6,2.6,1.5,3.4c0.5,0.5,1.1,0.9,1.9,1.3c5.1,2.3,9.3,3.1,15,3.3c0.4,0,0.9,0,1.3,0
		c0.6,0,1.3,0,1.9,0c0.1,0,0.2,0,0.3,0c0.6,0,1.2,0,1.7-0.1c0.1,0,0.3,0,0.4,0c12.7-1,18.8-8.7,18.8-21.6V42.8
		C197.8,35.6,196.1,27.3,183.9,25.5z"/>
	<path d="M403.6,48v8.8h24.6c0-0.9,0-2.1,0-3.2c0-11.1-2.1-18.3-7-23.3c-3.4-3.5-9.2-5.6-15.4-5.6c-7.1,0-12.4,2.3-16.7,7.2
		c-4.7,5.2-6.6,11.5-6.6,21.1c0,16.7,9.9,27.5,25.1,27.5c6.4,0,12.1-1.8,17.4-5.4l-0.1-0.2c1.2-0.9,1.9-2.3,1.9-3.9
		c0-2.7-2.2-4.9-4.9-4.9c-0.8,0-1.6,0.2-2.3,0.6l0,0c-0.1,0-0.1,0.1-0.2,0.1c-0.1,0.1-0.2,0.1-0.2,0.2c-3.3,2.1-6.8,3.1-10.4,3.1
		c-6.9,0-10.9-4.4-11.2-12.1c0-0.1-0.1-0.1-0.1-0.2v-0.5c0-0.1,0-0.1,0-0.2v-0.4l0,0V48h0v-0.2c0-7.4,2.2-12.9,8.5-12.9
		c2.8,0,4.8,1.1,6.1,3.1c1.2,2,1.7,5.4,1.7,9.4V48H403.6z"/>
	<path d="M234.1,29.8c0-2.4-1.9-4.4-4.3-4.4l0,0c0,0,0,0-0.1,0h0h0c-1.7,0-2.8,0-6,0c-19.6,0-19.2,12.8-19.2,21.4
		c0,8.5,0,32.7,0,32.7h14.3c0,0,0-16.3,0-30.9c0-6.2,0.3-9.8,1.2-11.9c0-0.1,0.1-0.1,0.1-0.2c0,0,0-0.1,0.1-0.2
		c1.3-2.5,4.1-2.1,5.5-2.1c1.4,0,2.1,0,3.2,0c0.4,0,0.6,0,0.8,0c0,0,0,0,0.1,0c0.1,0,0.1,0,0.2,0c0.3,0,0.4-0.1,0.4-0.1l0,0
		C232.4,33.9,234.1,32.1,234.1,29.8z"/>
	<path class="st2" d="M48,76.8c0,0.1,0.1,0.2,0.1,0.3c0,0,0,0,0,0.1c0.9,1.3,2.3,1.3,3,1.1c0.8-0.2,4.2-1.5,4.2-1.5
		c-0.5-0.1-2.5-0.1-3-0.7c-0.3-0.3-0.6-0.7-0.8-1.1c0-0.1-0.1-0.2-0.1-0.2c-0.1-0.2-0.2-0.5-0.2-0.5c0-0.1-0.1-0.1-0.1-0.1
		C43.3,51.9,38.7,33,38.1,30.7l-0.2-0.8c-0.3-1.5,0.9-3.1,1.2-3.5l-3.1,2c-0.3,0.2-0.6,0.4-0.8,0.7c-0.8,0.9-1,2.2-0.6,3.5
		c0.2,1,4.9,20.5,13.1,43.5C47.7,76.3,47.8,76.6,48,76.8z"/>
	<path d="M40.2,26c0.3,0,0.6,0,1,0c0-0.1,22.3,3.7,45.9,10.5c1.2,0.3,2.3,1.3,2.7,2.6c0.4,1.3,0.1,2.8-0.8,3.7
		C88.2,43.7,73.1,60.6,56.6,76c-0.4,0.4-0.8,0.7-1.3,0.8c-0.1,0-0.2,0.1-0.3,0.1c-0.5,0.1-1,0.1-1.5-0.1c-1.1-0.4-2.1-1.3-2.4-2.6
		C42.8,51.1,38,31.5,37.8,30.5c-0.4-1.2-0.1-2.5,0.6-3.5c0.4-0.5,0.9-0.8,1.5-1C40,26,40.1,26,40.2,26z"/>
	
		<linearGradient id="SVGID_3_" gradientUnits="userSpaceOnUse" x1="60.7047" y1="52.9496" x2="62.9201" y2="78.2719" gradientTransform="matrix(1 0 0 -1 0 108.3989)">
		<stop  offset="0" style="stop-color:#FFFFFF;stop-opacity:0.25"/>
		<stop  offset="1" style="stop-color:#FFFFFF"/>
	</linearGradient>
	<path class="st3" d="M48,52c0,0,1.3,3.4,12.7,3.3c11.4-0.1,21.4-15.7,22.6-17.7c-18.8-5.3-36.5-8.5-39.5-9l-0.5-0.1
		c-0.1,0-0.1,0-0.2,0c-0.1,0-0.1,0-0.2,0c-0.3,0.1-0.5,0.2-0.7,0.4c-0.3,0.4-0.4,1.1-0.3,1.7C42,30.7,48,52,48,52z"/>
</g>
</svg>
