<?xml version="1.0" encoding="UTF-8"?>
<svg width="30px" height="30px" viewBox="0 0 30 30" version="1.1" xmlns="http://www.w3.org/2000/svg" xmlns:xlink="http://www.w3.org/1999/xlink">
    <!-- Generator: Sketch 53.2 (72643) - https://sketchapp.com -->
    <title>Controls/Social Buttons/SoundClous</title>
    <desc>Created with Sketch.</desc>
    <g id="Controls/Social-Buttons/SoundClous" stroke="none" stroke-width="1" fill="none" fill-rule="evenodd">
        <rect fill="#FFFFFF" x="0" y="0" width="30" height="30"></rect>
        <rect id="UmrisslinieEtwasDicker" stroke="#000000" stroke-width="0.5" x="0.25" y="0.25" width="29.5" height="29.5" rx="14.75"></rect>
        <path d="M6.6722,18.03475 L7,16.6025227 L6.6722,15.1220227 C6.6632,15.0780455 6.5808,15.0445 6.4804,15.0445 C6.3788,15.0445 6.2964,15.0780455 6.2886,15.1224318 L6,16.6025227 L6.2886,18.03475 C6.2964,18.0791364 6.3788,18.1126818 6.4804,18.1126818 C6.5808,18.1126818 6.6632,18.0791364 6.6722,18.03475 Z M8.7222,18.8298182 L9,16.6166364 L8.7222,13.1925455 C8.714,13.1054091 8.61,13.0370909 8.484,13.0370909 C8.357,13.0370909 8.2528,13.1054091 8.2464,13.1925455 L8,16.6166364 L8.2464,18.8298182 C8.2526,18.9161364 8.357,18.9844545 8.484,18.9844545 C8.6102,18.9844545 8.714,18.9169545 8.7222,18.8298182 Z M10.768,18.7934091 L11,16.6178636 L10.768,12.0591591 C10.7618,11.9521818 10.6384,11.8681136 10.4872,11.8681136 C10.3348,11.8681136 10.2114,11.9519773 10.206,12.0591591 L10,16.6178636 L10.2058,18.7946364 C10.2112,18.9007955 10.3348,18.9844545 10.487,18.9844545 C10.6382,18.9840455 10.7618,18.9005909 10.768,18.7934091 Z M12.8098,18.7610909 L13,16.6180682 L12.8098,12.0262273 C12.8052,11.8992045 12.6644,11.7997955 12.4898,11.7997955 C12.314,11.7997955 12.1734,11.8992045 12.169,12.0262273 L12,16.6180682 L12.17,18.7606818 C12.1736,18.8864773 12.3142,18.9860909 12.49,18.9860909 C12.6644,18.9860909 12.805,18.8881136 12.8098,18.7610909 Z M14.8496,18.7338864 L15,16.6188864 L14.8496,11.3538864 C14.8464,11.2092727 14.686,11.0918636 14.4922,11.0918636 C14.298,11.0918636 14.138,11.2096818 14.1348,11.3538864 L14,16.6174545 C14,16.6209318 14.1348,18.7342955 14.1348,18.7342955 C14.138,18.8770682 14.298,18.9944773 14.4922,18.9944773 C14.686,18.9944773 14.8464,18.8785 14.8496,18.7338864 Z M16.2782,18.9959091 C16.2848,18.9963182 23.3766,19 23.4228,19 C24.8464,19 26,17.8586364 26,16.45075 C26,15.0424545 24.8464,13.9010909 23.4226,13.9010909 C23.0694,13.9010909 22.7328,13.9722727 22.4258,14.0992955 C22.2208,11.80225 20.2726,10 17.8968,10 C17.3156,10 16.7484,10.1131136 16.248,10.3043636 C16.0536,10.3792273 16.0016,10.4555227 16,10.6044318 L16,18.6948182 C16.002,18.8506818 16.1242,18.9807727 16.2782,18.9959091 Z" id="Shape" fill="#000000" fill-rule="nonzero"></path>
    </g>
</svg>