<?xml version="1.0" encoding="UTF-8"?>
<svg width="30px" height="30px" viewBox="0 0 30 30" version="1.1" xmlns="http://www.w3.org/2000/svg" xmlns:xlink="http://www.w3.org/1999/xlink">
    <!-- Generator: Sketch 53.2 (72643) - https://sketchapp.com -->
    <title>Controls/Social Buttons/Spotify</title>
    <desc>Created with Sketch.</desc>
    <g id="Controls/Social-Buttons/Spotify" stroke="none" stroke-width="1" fill="none" fill-rule="evenodd">
        <rect fill="#FFFFFF" x="0" y="0" width="30" height="30"></rect>
        <rect id="UmrisslinieEtwasDicker" stroke="#000000" stroke-width="0.5" x="0.25" y="0.25" width="29.5" height="29.5" rx="14.75"></rect>
        <path d="M20.6788772,13.9322359 C17.240655,11.8266526 11.5695439,11.6332359 8.28687718,12.6608193 C7.75976607,12.8258193 7.20243274,12.5187359 7.04332163,11.9751526 C6.88332163,11.4315693 7.18021052,10.8568193 7.70821052,10.6918193 C11.4762105,9.51206926 17.7393216,9.74031926 21.6975439,12.1630693 C22.1713216,12.4536526 22.3268772,13.0843193 22.0459883,13.5729026 C21.7650994,14.0614859 21.152655,14.2228193 20.6788772,13.9322359 Z M20.5668772,17.0516526 C20.3250994,17.4549859 19.8139883,17.5814859 19.4228772,17.3339859 C16.5562105,15.5171526 12.1855439,14.9900693 8.79354385,16.0515693 C8.35443274,16.1890693 7.88954385,15.9333193 7.75621052,15.4804859 C7.62376607,15.0267359 7.87176607,14.5491526 8.31087718,14.4107359 C12.184655,13.1989026 17.000655,13.7855693 20.2930994,15.8728193 C20.6842105,16.1203193 20.8068772,16.6492359 20.5668772,17.0516526 Z M19.2610994,20.0464026 C19.0699883,20.3709026 18.6602105,20.4726526 18.3473216,20.2746526 C15.8424327,18.6961526 12.6895439,18.3395693 8.97665496,19.2140693 C8.61932163,19.2984026 8.26287718,19.0674026 8.18109941,18.6989026 C8.09932163,18.3294859 8.32243274,17.9619026 8.68065496,17.8775693 C12.7437661,16.9196526 16.2290994,17.3321526 19.040655,19.1040693 C19.3544327,19.3011526 19.4530994,19.7237359 19.2610994,20.0464026 L19.2610994,20.0464026 Z" id="Shape" fill="#000000"></path>
    </g>
</svg>