<?xml version="1.0" encoding="UTF-8"?>
<svg width="30px" height="30px" viewBox="0 0 30 30" version="1.1" xmlns="http://www.w3.org/2000/svg" xmlns:xlink="http://www.w3.org/1999/xlink">
    <!-- Generator: Sketch 53.2 (72643) - https://sketchapp.com -->
    <title>Controls/Social Buttons/YouTube</title>
    <desc>Created with Sketch.</desc>
    <g id="Controls/Social-Buttons/YouTube" stroke="none" stroke-width="1" fill="none" fill-rule="evenodd">
        <rect fill="#FFFFFF" x="0" y="0" width="30" height="30"></rect>
        <rect id="UmrisslinieEtwasDicker" stroke="#000000" stroke-width="0.5" x="0.25" y="0.25" width="29.5" height="29.5" rx="14.75"></rect>
        <polygon id="Path" fill="#000000" fill-rule="nonzero" points="9.1216 5 10.2736 5 11.064 7.93075 11.7968 5 12.96 5 11.628 9.358125 11.628 12.3324167 10.4832 12.3324167 10.4832 9.358125"></polygon>
        <path d="M14.3968,6.878625 C15.22,6.878625 15.8576,7.48504167 15.8576,8.33133333 L15.8576,10.982625 C15.8576,11.8914583 15.2144,12.4321667 14.3968,12.4321667 C13.4112,12.4321667 12.908,11.9357917 12.908,10.982625 L12.908,8.33133333 C12.908,7.46445833 13.5016,6.878625 14.3968,6.878625 Z M14.8216,10.9375 L14.8216,8.42079167 C14.8216,8.118375 14.688,7.90541667 14.376,7.90541667 C14.0904,7.90541667 13.9528,8.12470833 13.9528,8.42079167 L13.9528,10.9375 C13.9528,11.2217083 14.1152,11.4489167 14.396,11.4489167 C14.6696,11.4489167 14.8216,11.232 14.8216,10.9375 Z" id="Combined-Shape" fill="#000000" fill-rule="nonzero"></path>
        <path d="M18.6048,6.92375 L18.6048,11.0293333 C18.4808,11.1829167 18.2048,11.4346667 18.0072,11.4346667 C17.7904,11.4346667 17.7368,11.2874167 17.7368,11.0705 L17.7368,6.92375 L16.7208,6.92375 L16.7208,11.4441667 C16.7208,11.9785417 16.8856,12.41 17.4304,12.41 C17.7376,12.41 18.1648,12.2516667 18.6048,11.7347083 L18.6048,12.331625 L19.6208,12.331625 L19.6208,6.92375 L18.6048,6.92375 Z" id="Path" fill="#000000" fill-rule="nonzero"></path>
        <path d="M20.3672,17.8946667 C20.0088,17.8946667 19.9344,18.1440417 19.9344,18.4987083 L19.9344,19.0204167 L20.7896064,19.0204167 L20.7896,18.4979167 C20.7904,18.1495833 20.716,17.8946667 20.3672,17.8946667 Z" id="Path" fill="#000000" fill-rule="nonzero"></path>
        <path d="M16.6048,17.9263333 C16.5376,17.960375 16.4712,18.012625 16.4048,18.0830833 L16.4048,21.2932917 C16.484,21.3772083 16.56,21.437375 16.6344,21.4745833 C16.792,21.55375 17.0224,21.5592917 17.1296,21.4215417 C17.1856,21.3487083 17.2136,21.23075 17.2136,21.0660833 L17.2136,18.406875 C17.2136,18.2327083 17.1792,18.1012917 17.1104,18.0110417 C16.9928,17.85825 16.7744,17.841625 16.6048,17.9263333 L16.6048,17.9263333 Z" id="Path" fill="#000000" fill-rule="nonzero"></path>
        <path d="M20.4664,13.813625 C22.72,13.965625 22.9832,15.3177917 23,18.8541667 C22.9832,22.3960833 22.7176,23.7427083 20.4664,23.8947083 C18.3832,24.0348333 11.6136,24.0348333 9.5336,23.8947083 C7.28,23.7427083 7.0168,22.3905417 7,18.8541667 C7.0168,15.3114583 7.2824,13.965625 9.5336,13.813625 C11.6136,13.6735 18.3832,13.6735 20.4664,13.813625 Z M10.6072,22.273375 L10.6064,22.273375 L10.6064,16.3042083 L11.7344,16.3042083 L11.7344,15.290875 L8.3888,15.290875 L8.3888,16.3042083 L9.5168,16.3042083 L9.5168,22.273375 L10.6072,22.273375 Z M14.484,22.273375 L14.4832,22.273375 L14.4832,17.1227917 L13.5152,17.1227917 L13.5152,21.0328333 C13.3976,21.1785 13.1352,21.418375 12.9464,21.418375 C12.7392,21.418375 12.6888,21.2790417 12.6888,21.071625 L12.6888,17.1227917 L11.7216,17.1227917 L11.7216,21.427875 C11.7216,22.472875 12.4376,22.48 12.9592,22.1839167 C13.152,22.0746667 13.3376,21.91475 13.516,21.7049583 L13.516,22.273375 L14.484,22.273375 Z M18.2096,21.2062083 L18.2104,21.2062083 L18.2104,18.3490833 C18.2104,17.6508333 17.9752,17.057875 17.2664,17.057875 C16.9208,17.057875 16.624,17.2755833 16.4056,17.5392083 L16.4056,15.290875 L15.4288,15.290875 L15.4288,22.273375 L16.4056,22.273375 L16.4056,21.8775417 C16.6752,22.2108333 16.9704,22.3390833 17.3248,22.3390833 C17.9688,22.3390833 18.2096,21.8435 18.2096,21.2062083 Z M21.7864,19.8192083 L21.7856,19.8192083 L21.7856,18.5082083 C21.7856,17.5772083 21.3376,16.9929583 20.4088,16.9929583 C19.536,16.9929583 18.9392,17.6144167 18.9392,18.5082083 L18.9392,20.8206667 C18.9392,21.7477083 19.412,22.4142917 20.336,22.4142917 C21.356,22.4142917 21.7864,21.812625 21.7864,20.8206667 L21.7864,20.4335417 L20.7904,20.4335417 L20.7904,20.791375 C20.7904,21.2394583 20.7664,21.5117917 20.3576,21.5117917 C19.9688,21.5117917 19.9352,21.1777083 19.9352,20.791375 L19.9352,19.8192083 L21.7864,19.8192083 Z" id="Combined-Shape" fill="#000000" fill-rule="nonzero"></path>
    </g>
</svg>