<?xml version="1.0" encoding="UTF-8"?>
<svg width="30px" height="30px" viewBox="0 0 30 30" version="1.1" xmlns="http://www.w3.org/2000/svg" xmlns:xlink="http://www.w3.org/1999/xlink">
    <!-- Generator: Sketch 53.2 (72643) - https://sketchapp.com -->
    <title>insta-icon</title>
    <desc>Created with Sketch.</desc>
    <g id="insta-icon" stroke="none" stroke-width="1" fill="none" fill-rule="evenodd">
        <path d="M15,1.15463195e-13 C23.2842712,1.13941399e-13 30,6.71572875 30,15 C30,23.2842712 23.2842712,30 15,30 C6.71572875,30 1.01453063e-15,23.2842712 0,15 C-1.01453063e-15,6.71572875 6.71572875,1.16984991e-13 15,1.15463195e-13 Z M19.4516455,11.7874835 C19.6234066,11.6153829 19.7095364,11.4143491 19.7095364,11.1848521 C19.7095364,10.936556 19.6234066,10.7263576 19.4516455,10.5542569 C19.2798843,10.3821269 19.0700712,10.2958563 18.8218252,10.2958563 C18.592781,10.2958563 18.3921438,10.3821269 18.2203826,10.5542569 C18.0486214,10.7263576 17.9629607,10.936556 17.9629607,11.1848521 C17.9629607,11.4143491 18.0486214,11.6153829 18.2203826,11.7874835 C18.3921438,11.9595842 18.592781,12.0454142 18.8218252,12.0454142 C19.0700712,12.0454142 19.2798843,11.9595842 19.4516455,11.7874835 Z M15.014438,12.8486094 C15.605796,12.8486094 16.1068906,13.0592778 16.5173116,13.4796746 C16.9277325,13.9005707 17.132943,14.4072675 17.132943,15.000235 C17.132943,15.5932024 16.9277325,16.0998992 16.5173116,16.5203254 C16.1068906,16.9411922 15.605796,17.1513906 15.014438,17.1513906 C14.422611,17.1513906 13.916474,16.9411922 13.4968773,16.5203254 C13.0768407,16.0998992 12.867057,15.5932024 12.867057,15.000235 C12.867057,14.4072675 13.0768407,13.9005707 13.4968773,13.4796746 C13.916474,13.0592778 14.422611,12.8486094 15.014438,12.8486094 Z M15.014438,18.7004141 C16.0258325,18.7004141 16.8938435,18.3419665 17.6194091,17.6250419 C18.3445056,16.9081467 18.7072884,16.0328978 18.7072884,15.000235 C18.7072884,13.9675722 18.3445056,13.0927932 17.6194091,12.3754281 C16.8938435,11.6585035 16.0258325,11.2996153 15.014438,11.2996153 C13.9837831,11.2996153 13.1056875,11.6585035 12.3805909,12.3754281 C11.6550253,13.0927932 11.2927116,13.9675722 11.2927116,15.000235 C11.2927116,16.0328978 11.6550253,16.9081467 12.3805909,17.6250419 C13.1056875,18.3419665 13.9837831,18.7004141 15.014438,18.7004141 Z M20.024212,9.96584243 C20.4250174,10.3770746 20.6256546,10.8695545 20.6256546,11.4432528 L20.6256546,18.5572172 C20.6256546,19.1309154 20.4250174,19.6233954 20.024212,20.0346275 C19.6234066,20.4458597 19.1369698,20.6510058 18.564374,20.6510058 L11.435626,20.6510058 C10.8630302,20.6510058 10.3761243,20.4458597 9.97531896,20.0346275 C9.57451359,19.6233954 9.37434543,19.1309154 9.37434543,18.5572172 L9.37434543,11.4432528 C9.37434543,10.8695545 9.57451359,10.3770746 9.97531896,9.96584243 C10.3761243,9.55461025 10.8630302,9.34899415 11.435626,9.34899415 L18.564374,9.34899415 C19.1369698,9.34899415 19.6234066,9.55461025 20.024212,9.96584243 Z M22.2,11.4432528 C22.2,10.4298592 21.8468328,9.56929711 21.1404983,8.86159589 C20.4341932,8.1538653 19.5757685,7.8 18.564374,7.8 L11.435626,7.8 C10.4429936,7.8 9.58873175,8.1538653 8.87322146,8.86159589 C8.15774049,9.56929711 7.8,10.4298592 7.8,11.4432528 L7.8,18.5572172 C7.8,19.5706108 8.15774049,20.4311729 8.87322146,21.1388741 C9.58873175,21.8466047 10.4429936,22.2 11.435626,22.2 L18.564374,22.2 C19.5757685,22.2 20.4341932,21.8466047 21.1404983,21.1388741 C21.8468328,20.4311729 22.2,19.5706108 22.2,18.5572172 L22.2,11.4432528 Z" id="Combined-Shape" fill="#FFFFFF"></path>
    </g>
</svg>